<?xml version="1.0" encoding="UTF-8"?>
<svg version="1.1" xmlns="http://www.w3.org/2000/svg" width="81" height="98">
<path d="M0 0 C1.81653692 -0.01652133 3.63300986 -0.04376084 5.44921875 -0.08203125 C8.08098756 -0.13714432 10.71123562 -0.15872751 13.34350586 -0.17333984 C14.14588181 -0.19600922 14.94825775 -0.21867859 15.77494812 -0.24203491 C21.81061716 -0.21970995 25.89017243 1.50157428 30.55053711 5.35009766 C35.54981572 11.63124258 35.77384624 16.88211435 35.86303711 24.60009766 C35.90654297 25.83179688 35.90654297 25.83179688 35.95092773 27.08837891 C36.01816081 33.61515891 34.66259913 39.07054974 30.06713867 43.91333008 C25.80815159 47.61986042 22.64361213 48.46426898 17.14038086 48.45556641 C16.06723633 48.47039063 14.9940918 48.48521484 13.88842773 48.50048828 C11.6489717 48.52492807 9.40922019 48.53061297 7.16967773 48.51611328 C0.01582583 48.65671907 -4.49674465 49.87152266 -10.36889648 54.0234375 C-13.14281178 55.79220724 -15.24101934 55.92597214 -18.44946289 55.35009766 C-19.44946289 54.35009766 -19.44946289 54.35009766 -19.57446289 51.16259766 C-20.62696899 46.57667823 -22.08090788 45.47095066 -25.75805664 42.80712891 C-28.46591322 40.47449495 -29.34995629 38.25360089 -29.73999023 34.7121582 C-29.78921497 31.48687939 -29.82077429 28.26328064 -29.82446289 25.03759766 C-29.84895508 23.92191406 -29.87344727 22.80623047 -29.89868164 21.65673828 C-29.9223971 14.98874089 -29.52507484 10.71815592 -25.44946289 5.35009766 C-17.55041517 -0.77569446 -9.51373603 0.06335071 0 0 Z M-21.44946289 10.35009766 C-24.33881393 14.68412422 -23.81753957 18.56356868 -23.82446289 23.66259766 C-23.84895508 24.60039062 -23.87344727 25.53818359 -23.89868164 26.50439453 C-23.92366093 32.41199709 -23.4578822 35.8971082 -19.44946289 40.35009766 C-16.821799 41.31229467 -16.821799 41.31229467 -14.44946289 41.35009766 C-14.81677762 38.04426513 -15.10273748 36.67642745 -17.57446289 34.35009766 C-18.19321289 33.69009766 -18.81196289 33.03009766 -19.44946289 32.35009766 C-19.28796085 28.9585547 -18.86649532 27.76713008 -16.44946289 25.35009766 C-12.89839935 19.16861667 -13.40931632 14.28023083 -14.44946289 7.35009766 C-16.91482829 7.35009766 -19.36996538 9.20425209 -21.44946289 10.35009766 Z M27.55053711 14.35009766 C25.3394799 19.91722385 24.22986 24.59309723 24.54272461 30.60009766 C24.54530273 31.17759766 24.54788086 31.75509766 24.55053711 32.35009766 C24.22053711 32.68009766 23.89053711 33.01009766 23.55053711 33.35009766 C23.50972928 35.34968129 23.50799355 37.3505502 23.55053711 39.35009766 C26.59361544 38.67701237 26.59361544 38.67701237 27.72583008 36.58544922 C28.64657032 34.08980159 28.77987754 32.2386509 28.74584961 29.58447266 C28.7394043 28.69501953 28.73295898 27.80556641 28.72631836 26.88916016 C28.70956055 25.96876953 28.69280273 25.04837891 28.67553711 24.10009766 C28.66651367 23.16423828 28.65749023 22.22837891 28.64819336 21.26416016 C28.62467347 18.95921109 28.59180563 16.65478606 28.55053711 14.35009766 C28.22053711 14.35009766 27.89053711 14.35009766 27.55053711 14.35009766 Z " fill="#FBF5E7" transform="translate(37.449462890625,-0.35009765625)"/>
<path d="M0 0 C0.99 0 1.98 0 3 0 C9 0 15 0 21 0 C21.495 3.96 21.495 3.96 22 8 C25.86509265 5.55210799 26.13406332 4.66484171 28 0 C31.96 0 35.92 0 40 0 C40.495 0.99 40.495 0.99 41 2 C41.825 1.484375 42.65 0.96875 43.5 0.4375 C47.0802503 -1.03295995 48.7760149 -0.99727857 52.5 -0.328125 C57.95053394 0.38725758 63.51223205 0.06936785 69 0 C69 1.98 69 3.96 69 6 C68.01 6.33 67.02 6.66 66 7 C65.67 10.63 65.34 14.26 65 18 C63.35 18.33 61.7 18.66 60 19 C57.63329671 16.63329671 58.2385438 9.96475862 58 7 C54.37 7 50.74 7 47 7 C47.495 9.475 47.495 9.475 48 12 C50.31 12 52.62 12 55 12 C55.6875 13.8125 55.6875 13.8125 56 16 C55.0625 17.6875 55.0625 17.6875 53 19 C50.31971468 19.54871983 47.73770094 19.77559828 45 20 C45 23.96 45 27.92 45 32 C46.65 32.66 48.3 33.32 50 34 C49.67 35.65 49.34 37.3 49 39 C39.43 39 29.86 39 20 39 C19.67 38.34 19.34 37.68 19 37 C16.24358584 37.49756092 16.24358584 37.49756092 14 39 C12.33382885 39.04063832 10.66611905 39.042721 9 39 C9.40647025 32.69971106 10.64800565 27.76189443 13.16015625 21.96875 C14.06539615 20.20343266 14.06539615 20.20343266 14 19 C12.84371094 19.01740234 12.84371094 19.01740234 11.6640625 19.03515625 C10.15972656 19.04869141 10.15972656 19.04869141 8.625 19.0625 C7.62726562 19.07410156 6.62953125 19.08570312 5.6015625 19.09765625 C3 19 3 19 1 18 C0.34 18.33 -0.32 18.66 -1 19 C-8.46666667 19.35555556 -8.46666667 19.35555556 -12 17 C-12.1875 14.375 -12.1875 14.375 -12 12 C-11.34 11.67 -10.68 11.34 -10 11 C-10.66 10.01 -11.32 9.02 -12 8 C-11.625 4.3125 -11.625 4.3125 -11 1 C-6.89019614 -1.05490193 -4.44432856 -0.96615838 0 0 Z M1 6 C1 9 1 9 1 9 Z M19 19 C20.98 23.29 22.96 27.58 25 32 C25.33 32 25.66 32 26 32 C26.02686553 30.02090602 26.04633375 28.04171029 26.0625 26.0625 C26.07410156 24.96035156 26.08570313 23.85820313 26.09765625 22.72265625 C26.31262571 20.08552366 26.31262571 20.08552366 25 19 C23.02 19 21.04 19 19 19 Z " fill="#F5F4F4" transform="translate(12,57)"/>
<path d="M0 0 C1.81653692 -0.01652133 3.63300986 -0.04376084 5.44921875 -0.08203125 C8.08098756 -0.13714432 10.71123562 -0.15872751 13.34350586 -0.17333984 C14.14588181 -0.19600922 14.94825775 -0.21867859 15.77494812 -0.24203491 C21.81061716 -0.21970995 25.89017243 1.50157428 30.55053711 5.35009766 C35.54981572 11.63124258 35.77384624 16.88211435 35.86303711 24.60009766 C35.90654297 25.83179688 35.90654297 25.83179688 35.95092773 27.08837891 C36.01816081 33.61515891 34.66259913 39.07054974 30.06713867 43.91333008 C25.80815159 47.61986042 22.64361213 48.46426898 17.14038086 48.45556641 C16.06723633 48.47039063 14.9940918 48.48521484 13.88842773 48.50048828 C11.6489717 48.52492807 9.40922019 48.53061297 7.16967773 48.51611328 C0.01582583 48.65671907 -4.49674465 49.87152266 -10.36889648 54.0234375 C-13.14281178 55.79220724 -15.24101934 55.92597214 -18.44946289 55.35009766 C-19.44946289 54.35009766 -19.44946289 54.35009766 -19.57446289 51.16259766 C-20.62696899 46.57667823 -22.08090788 45.47095066 -25.75805664 42.80712891 C-28.46591322 40.47449495 -29.34995629 38.25360089 -29.73999023 34.7121582 C-29.78921497 31.48687939 -29.82077429 28.26328064 -29.82446289 25.03759766 C-29.84895508 23.92191406 -29.87344727 22.80623047 -29.89868164 21.65673828 C-29.9223971 14.98874089 -29.52507484 10.71815592 -25.44946289 5.35009766 C-17.55041517 -0.77569446 -9.51373603 0.06335071 0 0 Z M-24.44946289 11.35009766 C-26.31577204 15.08271596 -25.67745195 19.5548055 -25.69946289 23.66259766 C-25.72008789 24.61328125 -25.74071289 25.56396484 -25.76196289 26.54345703 C-25.81156363 33.44485048 -25.81156363 33.44485048 -22.44946289 39.35009766 C-19.0001364 42.68938994 -19.0001364 42.68938994 -14.44946289 43.35009766 C-14.77946289 45.66009766 -15.10946289 47.97009766 -15.44946289 50.35009766 C-12.8446671 49.40947695 -10.75982911 48.61638969 -8.64428711 46.80126953 C-5.8121545 44.92872268 -3.95925288 44.9670898 -0.58227539 44.94384766 C0.55081055 44.92193359 1.68389648 44.90001953 2.85131836 44.87744141 C4.03081055 44.86841797 5.21030273 44.85939453 6.42553711 44.85009766 C18.02438845 44.93405548 18.02438845 44.93405548 27.86303711 39.35009766 C31.55085231 34.97935372 30.88058671 29.53190039 30.98803711 24.10009766 C31.05667969 22.70597656 31.05667969 22.70597656 31.12670898 21.28369141 C31.20810105 16.27984861 30.93491238 13.15400685 27.64819336 9.24072266 C22.35181387 3.83076301 15.61321795 5.05663184 8.49780273 4.96923828 C7.57265869 4.96126221 6.64751465 4.95328613 5.69433594 4.94506836 C3.81556784 4.92352174 1.93689923 4.88945832 0.05859375 4.8425293 C-2.6567852 4.7753205 -5.37008676 4.74803416 -8.08618164 4.72900391 C-8.91872971 4.70117325 -9.75127777 4.67334259 -10.60905457 4.64466858 C-16.89146213 4.6666257 -20.31796018 6.62655791 -24.44946289 11.35009766 Z " fill="#523D31" transform="translate(37.449462890625,-0.35009765625)"/>
<path d="M0 0 C0.99 0 1.98 0 3 0 C9 0 15 0 21 0 C21.495 3.96 21.495 3.96 22 8 C25.86509265 5.55210799 26.13406332 4.66484171 28 0 C31.96 0 35.92 0 40 0 C39.67 0.99 39.34 1.98 39 3 C39 2.34 39 1.68 39 1 C35.7 1.33 32.4 1.66 29 2 C28.67 6.29 28.34 10.58 28 15 C25.36 14.67 22.72 14.34 20 14 C20 9.71 20 5.42 20 1 C18.68 1 17.36 1 16 1 C16.495 9.415 16.495 9.415 17 18 C13.89936477 19.03354508 11.68555932 19.13364996 8.4375 19.125 C7.46683594 19.12757812 6.49617188 19.13015625 5.49609375 19.1328125 C3 19 3 19 1 18 C0.34 18.33 -0.32 18.66 -1 19 C-8.46666667 19.35555556 -8.46666667 19.35555556 -12 17 C-12.1875 14.375 -12.1875 14.375 -12 12 C-11.34 11.67 -10.68 11.34 -10 11 C-10.66 10.01 -11.32 9.02 -12 8 C-11.625 4.3125 -11.625 4.3125 -11 1 C-6.89019614 -1.05490193 -4.44432856 -0.96615838 0 0 Z M1 6 C1 9 1 9 1 9 Z " fill="#F3F2F1" transform="translate(12,57)"/>
<path d="M0 0 C1.81653692 -0.01652133 3.63300986 -0.04376084 5.44921875 -0.08203125 C8.08098756 -0.13714432 10.71123562 -0.15872751 13.34350586 -0.17333984 C14.14588181 -0.19600922 14.94825775 -0.21867859 15.77494812 -0.24203491 C21.81061716 -0.21970995 25.89017243 1.50157428 30.55053711 5.35009766 C35.54981572 11.63124258 35.77384624 16.88211435 35.86303711 24.60009766 C35.90654297 25.83179688 35.90654297 25.83179688 35.95092773 27.08837891 C36.01816081 33.61515891 34.66259913 39.07054974 30.06713867 43.91333008 C25.80815159 47.61986042 22.64361213 48.46426898 17.14038086 48.45556641 C16.06723633 48.47039063 14.9940918 48.48521484 13.88842773 48.50048828 C11.6489717 48.52492807 9.40922019 48.53061297 7.16967773 48.51611328 C0.01582583 48.65671907 -4.49674465 49.87152266 -10.36889648 54.0234375 C-13.14281178 55.79220724 -15.24101934 55.92597214 -18.44946289 55.35009766 C-19.44946289 54.35009766 -19.44946289 54.35009766 -19.57446289 51.16259766 C-20.62696899 46.57667823 -22.08090788 45.47095066 -25.75805664 42.80712891 C-28.46591322 40.47449495 -29.34995629 38.25360089 -29.73999023 34.7121582 C-29.78921497 31.48687939 -29.82077429 28.26328064 -29.82446289 25.03759766 C-29.84895508 23.92191406 -29.87344727 22.80623047 -29.89868164 21.65673828 C-29.9223971 14.98874089 -29.52507484 10.71815592 -25.44946289 5.35009766 C-17.55041517 -0.77569446 -9.51373603 0.06335071 0 0 Z M-26.79321289 8.85009766 C-29.23003366 13.9996057 -29.0309832 18.72519602 -28.94946289 24.35009766 C-28.96493164 25.41744141 -28.98040039 26.48478516 -28.99633789 27.58447266 C-28.96537332 33.80835087 -28.63542046 37.63505995 -24.44946289 42.35009766 C-21.81503665 44.80272723 -21.81503665 44.80272723 -18.44946289 45.35009766 C-18.44946289 47.99009766 -18.44946289 50.63009766 -18.44946289 53.35009766 C-16.14691422 54.12010114 -16.14691422 54.12010114 -13.44946289 54.35009766 C-11.37072668 53.18218526 -11.37072668 53.18218526 -9.45336914 51.44775391 C-3.66937899 47.30162311 1.7038534 47.6337095 8.61303711 47.78759766 C20.03249385 48.0333863 20.03249385 48.0333863 29.55053711 42.35009766 C34.62851804 37.06288138 34.18454134 31.34850783 34.11303711 24.41259766 C34.13688477 23.35363281 34.16073242 22.29466797 34.18530273 21.20361328 C34.17445335 15.40642783 33.76583644 11.36040408 30.11279297 6.75024414 C24.96229109 2.13419034 20.73949266 1.89415655 14.08569336 1.91650391 C12.7192997 1.90864113 12.7192997 1.90864113 11.32530212 1.90061951 C9.40307634 1.89421 7.48081129 1.89552242 5.55859375 1.90405273 C2.62615728 1.9125596 -0.30432821 1.88379195 -3.23657227 1.85205078 C-5.10831648 1.85043846 -6.98006412 1.85101689 -8.85180664 1.85400391 C-10.15987526 1.83715294 -10.15987526 1.83715294 -11.49436951 1.81996155 C-18.30692136 1.89749372 -22.0582336 3.79945308 -26.79321289 8.85009766 Z " fill="#DCD8D6" transform="translate(37.449462890625,-0.35009765625)"/>
<path d="M0 0 C2.3203125 0.13671875 2.3203125 0.13671875 5 1 C6.6171875 3.58203125 6.6171875 3.58203125 7.875 6.8125 C8.30554687 7.87082031 8.73609375 8.92914063 9.1796875 10.01953125 C9.98698942 12.95272822 10.09026317 14.22050193 9 17 C8.01 17 7.02 17 6 17 C6 16.01 6 15.02 6 14 C3.69 14 1.38 14 -1 14 C-1.33 14.99 -1.66 15.98 -2 17 C-2.99 17 -3.98 17 -5 17 C-4.46246904 10.81839396 -2.45417612 5.673142 0 0 Z " fill="#5E4B40" transform="translate(27,78)"/>
<path d="M0 0 C1.23556641 0.01740234 1.23556641 0.01740234 2.49609375 0.03515625 C3.32238281 0.04417969 4.14867187 0.05320313 5 0.0625 C5.63808594 0.07410156 6.27617187 0.08570313 6.93359375 0.09765625 C6.93359375 1.41765625 6.93359375 2.73765625 6.93359375 4.09765625 C4.95359375 4.09765625 2.97359375 4.09765625 0.93359375 4.09765625 C0.93359375 5.08765625 0.93359375 6.07765625 0.93359375 7.09765625 C2.91359375 7.09765625 4.89359375 7.09765625 6.93359375 7.09765625 C6.93359375 8.08765625 6.93359375 9.07765625 6.93359375 10.09765625 C4.95359375 10.09765625 2.97359375 10.09765625 0.93359375 10.09765625 C0.93359375 11.08765625 0.93359375 12.07765625 0.93359375 13.09765625 C2.91359375 13.09765625 4.89359375 13.09765625 6.93359375 13.09765625 C6.93359375 14.41765625 6.93359375 15.73765625 6.93359375 17.09765625 C5.45452483 17.12454841 3.97531892 17.14400246 2.49609375 17.16015625 C1.26052734 17.17755859 1.26052734 17.17755859 0 17.1953125 C-2.06640625 17.09765625 -2.06640625 17.09765625 -3.06640625 16.09765625 C-3.16615657 13.58629521 -3.20522808 11.1086221 -3.19140625 8.59765625 C-3.19527344 7.89511719 -3.19914063 7.19257812 -3.203125 6.46875 C-3.19095169 0.15080112 -3.19095169 0.15080112 0 0 Z " fill="#4E3A2E" transform="translate(18.06640625,57.90234375)"/>
<path d="M0 0 C1.670625 0.061875 1.670625 0.061875 3.375 0.125 C3.705 1.445 4.035 2.765 4.375 4.125 C1.405 3.63 1.405 3.63 -1.625 3.125 C-1.625 4.115 -1.625 5.105 -1.625 6.125 C-0.655625 6.434375 0.31375 6.74375 1.3125 7.0625 C4.375 8.125 4.375 8.125 5.375 9.125 C5.625 12.0625 5.625 12.0625 5.375 15.125 C1.70153229 17.57397847 -0.28856399 17.44037716 -4.625 17.125 C-5.285 16.465 -5.945 15.805 -6.625 15.125 C-6.625 14.135 -6.625 13.145 -6.625 12.125 C-3.985 12.455 -1.345 12.785 1.375 13.125 C-0.13163783 10.11172434 -2.65666411 9.51443382 -5.625 8.125 C-5.75 5.25 -5.75 5.25 -5.625 2.125 C-3.625 0.125 -3.625 0.125 0 0 Z " fill="#4F3A2E" transform="translate(7.625,57.875)"/>
<path d="M0 0 C0.66 0.33 1.32 0.66 2 1 C2 2.32 2 3.64 2 5 C-0.64 5 -3.28 5 -6 5 C-6 7.31 -6 9.62 -6 12 C-3.36 12 -0.72 12 2 12 C1.125 15.875 1.125 15.875 0 17 C-3.7466522 17.35345775 -6.15177284 17.50023653 -9.4375 15.5625 C-11.75587974 11.76035723 -11.77201236 8.33759522 -11 4 C-8.17911567 -0.6262503 -5.13262119 -0.4752427 0 0 Z " fill="#503A2F" transform="translate(64,58)"/>
<path d="M0 0 C3.3 0 6.6 0 10 0 C10 0.99 10 1.98 10 3 C7.69 3 5.38 3 3 3 C3 4.32 3 5.64 3 7 C4.98 7 6.96 7 9 7 C9 7.99 9 8.98 9 10 C7.02 10 5.04 10 3 10 C3 10.99 3 11.98 3 13 C5.31 13 7.62 13 10 13 C10 14.32 10 15.64 10 17 C6.7 17 3.4 17 0 17 C0 11.39 0 5.78 0 0 Z " fill="#473227" transform="translate(41,58)"/>
<path d="M0 0 C0 2.31 0 4.62 0 7 C-0.66 7 -1.32 7 -2 7 C-2.33 7.66 -2.66 8.32 -3 9 C-4.98 8.01 -6.96 7.02 -9 6 C-9 5.01 -9 4.02 -9 3 C-6.03 3.495 -6.03 3.495 -3 4 C-3.33 3.01 -3.66 2.02 -4 1 C-6.33294775 0.95758277 -8.66702567 0.95907063 -11 1 C-12.35618499 2.12534105 -12.35618499 2.12534105 -12.0625 5.0625 C-12.041875 6.031875 -12.02125 7.00125 -12 8 C-10.02 8.99 -8.04 9.98 -6 11 C-6 11.66 -6 12.32 -6 13 C-8.64 12.67 -11.28 12.34 -14 12 C-13.34 13.65 -12.68 15.3 -12 17 C-12.99 16.67 -13.98 16.34 -15 16 C-15 14.35 -15 12.7 -15 11 C-14.34 10.67 -13.68 10.34 -13 10 C-13.66 9.01 -14.32 8.02 -15 7 C-14.625 3.3125 -14.625 3.3125 -14 0 C-8.8557044 -2.5721478 -5.30875915 -1.76958638 0 0 Z " fill="#E5E2E0" transform="translate(15,58)"/>
<path d="M0 0 C3.96 0 7.92 0 12 0 C12 1.32 12 2.64 12 4 C10.68 4 9.36 4 8 4 C8 7.96 8 11.92 8 16 C6.68 16 5.36 16 4 16 C4 12.04 4 8.08 4 4 C2.68 4 1.36 4 0 4 C0 2.68 0 1.36 0 0 Z " fill="#503B30" transform="translate(68,58)"/>
<path d="M0 0 C0.66 0 1.32 0 2 0 C2.33 2.64 2.66 5.28 3 8 C6.86509265 5.55210799 7.13406332 4.66484171 9 0 C12.96 0 16.92 0 21 0 C20.67 0.99 20.34 1.98 20 3 C20 2.34 20 1.68 20 1 C16.7 1.33 13.4 1.66 10 2 C9.67 6.29 9.34 10.58 9 15 C6.36 14.67 3.72 14.34 1 14 C0.67 9.38 0.34 4.76 0 0 Z " fill="#FDFDFD" transform="translate(31,57)"/>
<path d="M0 0 C1.32 0 2.64 0 4 0 C4 4.29 4 8.58 4 13 C5.98 13 7.96 13 10 13 C10 14.32 10 15.64 10 17 C8.52093108 17.02689216 7.04172517 17.04634621 5.5625 17.0625 C4.32693359 17.07990234 4.32693359 17.07990234 3.06640625 17.09765625 C1 17 1 17 0 16 C-0.07319621 13.30345146 -0.09242537 10.63308542 -0.0625 7.9375 C-0.05798828 7.17888672 -0.05347656 6.42027344 -0.04882812 5.63867188 C-0.0370068 3.75908129 -0.01907078 1.87953101 0 0 Z " fill="#4C362B" transform="translate(28,58)"/>
<path d="M0 0 C1.32 0.33 2.64 0.66 4 1 C4 4.96 4 8.92 4 13 C5.65 13 7.3 13 9 13 C9.33 14.32 9.66 15.64 10 17 C8.52093108 17.02689216 7.04172517 17.04634621 5.5625 17.0625 C4.32693359 17.07990234 4.32693359 17.07990234 3.06640625 17.09765625 C1 17 1 17 0 16 C-0.07319621 13.30345146 -0.09242537 10.63308542 -0.0625 7.9375 C-0.05798828 7.17888672 -0.05347656 6.42027344 -0.04882812 5.63867188 C-0.0370068 3.75908129 -0.01907078 1.87953101 0 0 Z " fill="#513D32" transform="translate(51,78)"/>
<path d="M0 0 C1.32 0.33 2.64 0.66 4 1 C4 4.96 4 8.92 4 13 C5.65 13 7.3 13 9 13 C9 14.32 9 15.64 9 17 C2.84765625 17.09765625 2.84765625 17.09765625 1 17 C0 16 0 16 -0.09765625 12.40234375 C-0.0909822 10.91403133 -0.07902183 9.42573568 -0.0625 7.9375 C-0.05798828 7.17888672 -0.05347656 6.42027344 -0.04882812 5.63867188 C-0.0370068 3.75908129 -0.01907078 1.87953101 0 0 Z " fill="#4E3A2F" transform="translate(39,78)"/>
<path d="M0 0 C-0.33 1.32 -0.66 2.64 -1 4 C-1.33 3.01 -1.66 2.02 -2 1 C-3.43655854 0.91868537 -4.8744483 0.86066441 -6.3125 0.8125 C-7.11300781 0.77769531 -7.91351563 0.74289063 -8.73828125 0.70703125 C-11.05179683 0.82189492 -11.05179683 0.82189492 -12.75 2.28125 C-14.69669742 4.95795895 -14.69541089 7.77135541 -15 11 C-15.99 10.34 -16.98 9.68 -18 9 C-18 8.34 -18 7.68 -18 7 C-19.98 7 -21.96 7 -24 7 C-24 5.68 -24 4.36 -24 3 C-23.12988281 2.83564453 -23.12988281 2.83564453 -22.2421875 2.66796875 C-18.41761122 1.89169337 -15.40431246 1.23584894 -12 -0.75 C-7.65546484 -2.56022298 -4.37519059 -1.35144776 0 0 Z " fill="#DAD6D4" transform="translate(68,58)"/>
<path d="M0 0 C1.875 0.75 1.875 0.75 2.875 1.75 C3.0625 4.1875 3.0625 4.1875 2.875 6.75 C2.215 7.41 1.555 8.07 0.875 8.75 C-1.75 8.375 -1.75 8.375 -4.125 7.75 C-4.8125 5.4375 -4.8125 5.4375 -5.125 2.75 C-3.57413519 0.30126608 -2.92569791 -0.34419975 0 0 Z " fill="#604C40" transform="translate(53.125,18.25)"/>
<path d="M0 0 C2.625 0.375 2.625 0.375 5 1 C5.625 3.3125 5.625 3.3125 6 6 C5.01 7.485 5.01 7.485 4 9 C-0.875 8.125 -0.875 8.125 -2 7 C-2.1875 4.5625 -2.1875 4.5625 -2 2 C-1.34 1.34 -0.68 0.68 0 0 Z " fill="#5E4B3F" transform="translate(26,18)"/>
<path d="M0 0 C2.625 0.375 2.625 0.375 5 1 C5.042721 2.66611905 5.04063832 4.33382885 5 6 C4 7 4 7 1.4375 7.0625 C0.2309375 7.0315625 0.2309375 7.0315625 -1 7 C-1.625 4.625 -1.625 4.625 -2 2 C-1.34 1.34 -0.68 0.68 0 0 Z " fill="#FE9A74" transform="translate(21,26)"/>
<path d="M0 0 C2.125 0.375 2.125 0.375 4 1 C4.38218767 2.65614657 4.71395102 4.32457024 5 6 C4 7 4 7 1.4375 7.0625 C0.2309375 7.0315625 0.2309375 7.0315625 -1 7 C-1.625 4.625 -1.625 4.625 -2 2 C-1.34 1.34 -0.68 0.68 0 0 Z " fill="#FE9872" transform="translate(56,26)"/>
<path d="M0 0 C0.268125 0.598125 0.53625 1.19625 0.8125 1.8125 C2.83614662 5.54027009 5.15900412 7.27817426 9 9 C9 9.66 9 10.32 9 11 C6.36 10.67 3.72 10.34 1 10 C1.66 11.65 2.32 13.3 3 15 C2.01 14.67 1.02 14.34 0 14 C0 12.35 0 10.7 0 9 C0.66 8.67 1.32 8.34 2 8 C1.34 7.01 0.68 6.02 0 5 C-0.125 2.3125 -0.125 2.3125 0 0 Z " fill="#F8F7F6" transform="translate(0,60)"/>
<path d="M0 0 C1.093125 0.185625 2.18625 0.37125 3.3125 0.5625 C6.93624133 1.2578068 6.93624133 1.2578068 10 0 C9.125 3.875 9.125 3.875 8 5 C5.0625 5.1875 5.0625 5.1875 2 5 C1.34 4.34 0.68 3.68 0 3 C0 2.01 0 1.02 0 0 Z " fill="#5B463A" transform="translate(35,25)"/>
<path d="M0 0 C0.99 0.33 1.98 0.66 3 1 C2.67 1.66 2.34 2.32 2 3 C1.236875 3.2475 0.47375 3.495 -0.3125 3.75 C-3.87213495 5.40564416 -5.04658392 7.67195779 -7 11 C-7.33 10.01 -7.66 9.02 -8 8 C-6.85546875 6.2109375 -6.85546875 6.2109375 -5.1875 4.375 C-4.64480469 3.76398437 -4.10210937 3.15296875 -3.54296875 2.5234375 C-2 1 -2 1 0 0 Z " fill="#EBE4D6" transform="translate(20,5)"/>
<path d="M0 0 C1.0828125 0.2475 1.0828125 0.2475 2.1875 0.5 C4.86427545 0.97587119 7.28949487 1.077443 10 1 C10.33 2.32 10.66 3.64 11 5 C10.01 5 9.02 5 8 5 C8.33 4.01 8.66 3.02 9 2 C6.36 2.33 3.72 2.66 1 3 C0.67 2.01 0.34 1.02 0 0 Z " fill="#E4E1DF" transform="translate(57,68)"/>
<path d="M0 0 C0.66 0 1.32 0 2 0 C2.66 1.98 3.32 3.96 4 6 C2.824375 5.9690625 2.824375 5.9690625 1.625 5.9375 C-0.98114961 5.81315937 -0.98114961 5.81315937 -3 7 C-1.125 1.125 -1.125 1.125 0 0 Z " fill="#ECE1D2" transform="translate(22,21)"/>
</svg>
